<svg width="94" height="94" viewBox="0 0 94 94" fill="none" xmlns="http://www.w3.org/2000/svg">
<path d="M12.2273 19.6087C11.0976 19.6087 10.1818 20.4846 10.1818 21.5652C10.1818 22.6458 11.0976 23.5217 12.2273 23.5217H48.0227C49.1524 23.5217 50.0682 22.6458 50.0682 21.5652C50.0682 20.4846 49.1524 19.6087 48.0227 19.6087H12.2273Z" fill="#3336B2"/>
<path d="M10.1818 30.3696C10.1818 29.289 11.0976 28.413 12.2273 28.413H48.0227C49.1524 28.413 50.0682 29.289 50.0682 30.3696C50.0682 31.4502 49.1524 32.3261 48.0227 32.3261H12.2273C11.0976 32.3261 10.1818 31.4502 10.1818 30.3696Z" fill="#3336B2"/>
<path d="M10.1818 39.1739C10.1818 38.0933 11.0976 37.2174 12.2273 37.2174H48.0227C49.1524 37.2174 50.0682 38.0933 50.0682 39.1739C50.0682 40.2545 49.1524 41.1304 48.0227 41.1304H12.2273C11.0976 41.1304 10.1818 40.2545 10.1818 39.1739Z" fill="#3336B2"/>
<path d="M10.1818 47.9783C10.1818 46.8977 11.1548 46.0217 12.3551 46.0217H42.7812C43.9816 46.0217 44.9545 46.8977 44.9545 47.9783C44.9545 49.0588 43.9816 49.9348 42.7812 49.9348H12.3551C11.1548 49.9348 10.1818 49.0588 10.1818 47.9783Z" fill="#3336B2"/>
<path d="M10.1818 56.7826C10.1818 55.702 11.0976 54.8261 12.2273 54.8261H35.75C36.8797 54.8261 37.7955 55.702 37.7955 56.7826C37.7955 57.8632 36.8797 58.7391 35.75 58.7391H12.2273C11.0976 58.7391 10.1818 57.8632 10.1818 56.7826Z" fill="#3336B2"/>
<path d="M10.1818 66.5652C10.1818 65.4846 11.0976 64.6087 12.2273 64.6087H35.75C36.8797 64.6087 37.7955 65.4846 37.7955 66.5652C37.7955 67.6458 36.8797 68.5217 35.75 68.5217H12.2273C11.0976 68.5217 10.1818 67.6458 10.1818 66.5652Z" fill="#3336B2"/>
<path d="M77.0827 60.2904C77.8815 61.0545 77.8815 62.2933 77.0827 63.0574L65.905 73.7491C65.0663 74.5513 63.7064 74.5514 62.8677 73.7491L57.8264 68.9269C57.0276 68.1629 57.0276 66.9241 57.8264 66.16C58.6252 65.3959 59.9203 65.3959 60.7191 66.16L64.3864 69.6678L74.19 60.2904C74.9888 59.5264 76.2839 59.5264 77.0827 60.2904Z" fill="#3336B2"/>
<path fill-rule="evenodd" clip-rule="evenodd" d="M13.25 2C10.9907 2 9.15909 3.75193 9.15909 5.91304V10.8043H6.09091C3.83156 10.8043 2 12.5563 2 14.7174V80.2609C2 82.4219 3.83156 84.1739 6.09091 84.1739H47.6847C52.3542 88.9876 59.0252 92 66.4318 92C80.5527 92 92 81.0504 92 67.5435C92 54.0365 80.5527 43.087 66.4318 43.087V5.91304C66.4318 3.75193 64.6002 2 62.3409 2H13.25ZM40.8636 67.5435C40.8636 72.2015 42.2251 76.5553 44.588 80.2609H6.09091V14.7174H54.1591V46.0833C46.2356 50.2379 40.8636 58.2907 40.8636 67.5435ZM62.3409 43.3983C60.9357 43.6144 59.5688 43.9402 58.25 44.3659V14.7174C58.25 12.5563 56.4184 10.8043 54.1591 10.8043H13.25V5.91304H62.3409V43.3983ZM66.4318 47C54.5702 47 44.9545 56.1976 44.9545 67.5435C44.9545 78.8894 54.5702 88.087 66.4318 88.087C78.2934 88.087 87.9091 78.8894 87.9091 67.5435C87.9091 56.1976 78.2934 47 66.4318 47Z" fill="#3336B2"/>
</svg>
