<svg width="94" height="94" viewBox="0 0 94 94" fill="none" xmlns="http://www.w3.org/2000/svg">
<path d="M62.3409 18.0897C61.3626 17.5248 61.0274 16.2738 61.5922 15.2955C62.1571 14.3172 63.408 13.982 64.3864 14.5468C65.3647 15.1117 65.6999 16.3626 65.135 17.341C64.5702 18.3193 63.3192 18.6545 62.3409 18.0897Z" fill="#3336B2"/>
<path d="M62.3409 75.9103C61.3626 76.4752 61.0274 77.7262 61.5922 78.7045C62.1571 79.6828 63.408 80.018 64.3864 79.4532C65.3647 78.8883 65.6999 77.6374 65.135 76.659C64.5702 75.6807 63.3192 75.3455 62.3409 75.9103Z" fill="#3336B2"/>
<path d="M78.7045 61.5923C77.7262 61.0274 76.4752 61.3626 75.9104 62.341C75.3456 63.3193 75.6808 64.5703 76.6591 65.1351C77.6374 65.6999 78.8884 65.3647 79.4532 64.3864C80.0181 63.4081 79.6829 62.1571 78.7045 61.5923Z" fill="#3336B2"/>
<path d="M75.9104 31.6591C76.4752 32.6375 77.7262 32.9727 78.7045 32.4078C79.6829 31.843 80.0181 30.592 79.4532 29.6137C78.8884 28.6354 77.6374 28.3002 76.6591 28.865C75.6808 29.4298 75.3456 30.6808 75.9104 31.6591Z" fill="#3336B2"/>
<path d="M28.8649 76.6591C28.3001 77.6375 28.6353 78.8885 29.6136 79.4533C30.592 80.0181 31.8429 79.6829 32.4078 78.7046C32.9726 77.7263 32.6374 76.4753 31.6591 75.9105C30.6808 75.3456 29.4298 75.6808 28.8649 76.6591Z" fill="#3336B2"/>
<path d="M31.6591 18.0897C30.6808 18.6545 29.4298 18.3193 28.8649 17.341C28.3001 16.3626 28.6353 15.1117 29.6136 14.5468C30.592 13.982 31.8429 14.3172 32.4078 15.2955C32.9726 16.2738 32.6374 17.5248 31.6591 18.0897Z" fill="#3336B2"/>
<path d="M17.3409 28.865C18.3192 29.4298 18.6544 30.6808 18.0896 31.6591C17.5248 32.6375 16.2738 32.9727 15.2954 32.4078C14.3171 31.843 13.9819 30.592 14.5468 29.6137C15.1116 28.6354 16.3626 28.3002 17.3409 28.865Z" fill="#3336B2"/>
<path d="M18.0896 62.341C18.6544 63.3193 18.3192 64.5703 17.3409 65.1351C16.3626 65.6999 15.1116 65.3647 14.5468 64.3864C13.9819 63.4081 14.3171 62.1571 15.2954 61.5923C16.2738 61.0274 17.5248 61.3626 18.0896 62.341Z" fill="#3336B2"/>
<path d="M49.0455 24.5C49.0455 23.3703 48.1297 22.4545 47 22.4545C45.8703 22.4545 44.9545 23.3703 44.9545 24.5V44.9545H31.6591C30.5294 44.9545 29.6136 45.8703 29.6136 47C29.6136 48.1297 30.5294 49.0455 31.6591 49.0455H47C48.1297 49.0455 49.0455 48.1297 49.0455 47V24.5Z" fill="#3336B2"/>
<path fill-rule="evenodd" clip-rule="evenodd" d="M2 47C2 22.1472 22.1472 2 47 2C71.8528 2 92 22.1472 92 47C92 71.8528 71.8528 92 47 92C22.1472 92 2 71.8528 2 47ZM12.2273 44.9545C13.3569 44.9545 14.2727 45.8703 14.2727 47C14.2727 48.1297 13.3569 49.0455 12.2273 49.0455H6.09091C7.12329 70.0111 23.9889 86.8767 44.9545 87.9091V81.7727C44.9545 80.6431 45.8703 79.7273 47 79.7273C48.1297 79.7273 49.0455 80.6431 49.0455 81.7727V87.9091C70.0111 86.8767 86.8767 70.0111 87.9091 49.0455H81.7727C80.6431 49.0455 79.7273 48.1297 79.7273 47C79.7273 45.8703 80.6431 44.9545 81.7727 44.9545H87.9091C86.8767 23.9889 70.0111 7.12329 49.0455 6.09091V12.2273C49.0455 13.3569 48.1297 14.2727 47 14.2727C45.8703 14.2727 44.9545 13.3569 44.9545 12.2273V6.09091C23.9889 7.12329 7.12329 23.9889 6.09091 44.9545H12.2273Z" fill="#3336B2"/>
</svg>
