<svg width="94" height="94" viewBox="0 0 94 94" fill="none" xmlns="http://www.w3.org/2000/svg">
<path d="M60.4322 44.7672C60.4322 45.8971 59.4838 46.8131 58.314 46.8131C57.1441 46.8131 56.1958 45.8971 56.1958 44.7672C56.1958 43.6372 57.1441 42.7212 58.314 42.7212C59.4838 42.7212 60.4322 43.6372 60.4322 44.7672Z" fill="#3336B2"/>
<path d="M56.1958 29.4224C56.1958 28.3799 56.5308 27.9798 56.7575 27.7973C57.0522 27.5602 57.5696 27.3764 58.314 27.3764C59.0584 27.3764 59.5758 27.5602 59.8705 27.7973C60.0972 27.9798 60.4322 28.3799 60.4322 29.4224C60.4322 30.0884 59.9554 30.8513 58.8409 32.0766C58.745 32.182 58.6413 32.2944 58.5329 32.4118C58.1207 32.8582 57.6408 33.3779 57.2686 33.8675C56.8152 34.4639 56.1958 35.4133 56.1958 36.5833V40.6748L60.4322 40.6752V36.6751C60.4546 36.6284 60.5189 36.5057 60.6832 36.2894C60.9252 35.9712 61.2189 35.6525 61.6012 35.2378C61.7312 35.0967 61.8715 34.9445 62.0235 34.7774C63.0272 33.674 64.6686 31.8254 64.6686 29.4224C64.6686 27.3959 63.9445 25.7501 62.5826 24.6538C61.2886 23.6123 59.6878 23.2845 58.314 23.2845C56.9402 23.2845 55.3394 23.6123 54.0454 24.6538C52.6835 25.7501 51.9594 27.3959 51.9594 29.4224H56.1958Z" fill="#3336B2"/>
<path fill-rule="evenodd" clip-rule="evenodd" d="M55.7029 13.4534C57.2367 12.2939 59.3914 12.294 60.9252 13.4537L79.1423 27.2277C82.3133 29.6254 80.558 34.5418 76.5309 34.5418H75.2596V48.8636C75.2596 51.1235 73.3629 52.9555 71.0232 52.9555H45.6048C43.2651 52.9555 41.3684 51.1235 41.3684 48.8636V34.5408L40.0924 34.5402C36.0661 34.5383 34.3127 29.6227 37.4835 27.2258L55.7029 13.4534ZM58.3138 16.6758L40.0944 30.4483L45.6048 30.4508V48.8636H71.0232V30.4499H76.5309L58.3138 16.6758Z" fill="#3336B2"/>
<path fill-rule="evenodd" clip-rule="evenodd" d="M33.4497 12.6979C46.0553 -0.633889 67.1032 -1.67129 80.9244 10.521C94.7315 22.7007 95.7968 44.0542 83.1783 57.3998C71.0313 70.2465 51.0452 71.6772 37.2401 60.855L28.347 69.4449C29.1982 70.9917 28.9492 72.9551 27.6001 74.2582L10.4728 90.8015C8.81838 92.3995 6.13604 92.3995 4.48163 90.8015L3.24081 89.603C1.58639 88.005 1.5864 85.4141 3.24081 83.8161L20.3681 67.2729C21.7173 65.9697 23.75 65.7293 25.3514 66.5515L34.1187 58.0831C21.8335 45.7133 21.3324 25.5134 33.4497 12.6979ZM78.0676 13.5424C65.9927 2.89069 47.6228 3.77617 36.5779 15.4574C25.5459 27.1249 26.4714 45.891 38.5604 56.5553C50.6353 67.207 69.0052 66.3215 80.0501 54.6403C91.0821 42.9728 90.1566 24.2067 78.0676 13.5424Z" fill="#3336B2"/>
</svg>
