<svg width="94" height="94" viewBox="0 0 94 94" fill="none" xmlns="http://www.w3.org/2000/svg">
<path d="M54.1974 47C54.1974 50.866 51.0515 54 47.1709 54C43.2902 54 40.1443 50.866 40.1443 47C40.1443 43.134 43.2902 40 47.1709 40C51.0515 40 54.1974 43.134 54.1974 47Z" fill="#3336B2"/>
<path fill-rule="evenodd" clip-rule="evenodd" d="M47 24C36.3302 24 19.7618 29.2882 3.37914 46.6149L2 48.0735L3.46677 49.4446C19.8335 64.7445 36.3676 70 47 70C57.6324 70 74.1664 64.7445 90.5332 49.4446L92 48.0735L90.6208 46.6149C74.2382 29.2882 57.6697 24 47 24ZM7.71129 47.8979C15.0217 54.4476 22.2552 58.879 28.8127 61.7173C25.5235 57.5168 23.9127 52.2307 23.9127 47C23.9127 41.9324 25.4247 36.8127 28.5099 32.6787C22.0351 35.7567 14.9113 40.5986 7.71129 47.8979ZM47 28C40.5182 28 35.8043 30.4016 32.6907 33.8912C29.5442 37.4177 27.9278 42.1761 27.9278 47C27.9278 51.8239 29.5442 56.5823 32.6907 60.1088C35.8043 63.5984 40.5182 66 47 66C53.4818 66 58.1956 63.5984 61.3093 60.1088C64.4558 56.5823 66.0721 51.8239 66.0721 47C66.0721 42.1761 64.4558 37.4177 61.3093 33.8912C58.1956 30.4016 53.4818 28 47 28ZM65.1873 61.7173C68.4764 57.5168 70.0873 52.2307 70.0873 47C70.0873 41.9324 68.5753 36.8127 65.49 32.6787C71.9649 35.7567 79.0887 40.5986 86.2887 47.8979C78.9782 54.4476 71.7448 58.879 65.1873 61.7173Z" fill="#3336B2"/>
</svg>
