<svg width="94" height="94" viewBox="0 0 94 94" fill="none" xmlns="http://www.w3.org/2000/svg">
<path d="M57.8552 24.147C57.0535 23.3242 55.7536 23.3242 54.9519 24.147L36.4752 43.1079C35.6735 43.9307 35.6735 45.2646 36.4752 46.0873C37.277 46.9101 38.5768 46.9101 39.3786 46.0873L57.8552 27.1264C58.657 26.3036 58.657 24.9697 57.8552 24.147Z" fill="#3336B2"/>
<path fill-rule="evenodd" clip-rule="evenodd" d="M33.821 27.7434C33.821 24.2528 36.5784 21.4231 39.9799 21.4231C43.3813 21.4231 46.1388 24.2528 46.1388 27.7434C46.1388 31.2341 43.3813 34.0638 39.9799 34.0638C36.5784 34.0638 33.821 31.2341 33.821 27.7434ZM39.9799 25.6367C38.846 25.6367 37.9269 26.5799 37.9269 27.7434C37.9269 28.907 38.846 29.8502 39.9799 29.8502C41.1137 29.8502 42.0328 28.907 42.0328 27.7434C42.0328 26.5799 41.1137 25.6367 39.9799 25.6367Z" fill="#3336B2"/>
<path fill-rule="evenodd" clip-rule="evenodd" d="M54.3506 36.1705C50.9491 36.1705 48.1917 39.0002 48.1917 42.4909C48.1917 45.9815 50.9491 48.8112 54.3506 48.8112C57.7521 48.8112 60.5095 45.9815 60.5095 42.4909C60.5095 39.0002 57.7521 36.1705 54.3506 36.1705ZM52.2976 42.4909C52.2976 41.3273 53.2168 40.3841 54.3506 40.3841C55.4844 40.3841 56.4036 41.3273 56.4036 42.4909C56.4036 43.6544 55.4844 44.5976 54.3506 44.5976C53.2168 44.5976 52.2976 43.6544 52.2976 42.4909Z" fill="#3336B2"/>
<path fill-rule="evenodd" clip-rule="evenodd" d="M44.6003 2.92332C46.0998 1.69223 48.2306 1.69223 49.7302 2.92332L74.6721 23.3998C77.7029 25.888 75.9884 30.9036 72.1072 30.9036H67.6949V51.9713C67.6949 54.2984 65.8566 56.1849 63.589 56.1849H30.7415C28.4739 56.1849 26.6356 54.2984 26.6356 51.9713V30.9036H22.2233C18.3421 30.9036 16.6276 25.888 19.6584 23.3998L44.6003 2.92332ZM47.1652 6.21354L22.2233 26.6901L30.7415 26.6901V51.9713L63.589 51.9713V26.6901H72.1072L47.1652 6.21354Z" fill="#3336B2"/>
<path d="M15.3443 67.7721C15.3443 68.9357 14.4251 69.8789 13.2913 69.8789C12.1575 69.8789 11.2383 68.9357 11.2383 67.7721C11.2383 66.6086 12.1575 65.6653 13.2913 65.6653C14.4251 65.6653 15.3443 66.6086 15.3443 67.7721Z" fill="#3336B2"/>
<path fill-rule="evenodd" clip-rule="evenodd" d="M2 64.612C2 62.2849 3.83829 60.3984 6.10593 60.3984H16.3708C18.6384 60.3984 20.4767 62.2849 20.4767 64.612V65.6653H33.5334C33.9149 65.6653 34.2946 65.7199 34.6614 65.8275L48.0991 69.7674L64.0919 63.5152C67.8722 62.0374 72.1381 63.6049 74.1452 67.2092L74.7618 68.3167L80.9255 65.8839C85.0461 64.2575 89.6822 66.2655 91.4213 70.4297L91.7501 71.217C92.4317 72.849 91.6697 74.7366 90.0634 75.396L50.514 91.6304C49.8163 91.9168 49.0553 92.0012 48.3141 91.8744L20.4767 87.1133V87.7865C20.4767 90.1135 18.6384 92 16.3708 92H6.10593C3.83829 92 2 90.1135 2 87.7865V64.612ZM16.3708 64.612H6.10593V87.7865H16.3708V64.612ZM20.4767 82.8416L48.9891 87.7182L87.5566 71.8869C86.6251 69.9431 84.3917 69.0302 82.3995 69.8166L74.5827 72.9018L49.939 82.3854L48.4974 78.4401L70.8747 69.8287L70.5802 69.2997C69.5767 67.4976 67.4437 66.7138 65.5536 67.4527L49.5607 73.7049C48.7322 74.0289 47.8236 74.0688 46.9711 73.8188L33.5334 69.8789H20.4767V82.8416Z" fill="#3336B2"/>
</svg>
