<svg width="94" height="94" viewBox="0 0 94 94" fill="none" xmlns="http://www.w3.org/2000/svg">
<path d="M61.3182 10.8043H57.2273V18.6304H61.3182V10.8043Z" fill="#3336B2"/>
<path d="M57.2273 31.3478V23.5217H61.3182V31.3478H57.2273Z" fill="#3336B2"/>
<path d="M57.2273 36.2391V44.0652H61.3182V36.2391H57.2273Z" fill="#3336B2"/>
<path d="M57.2273 56.7826V48.9565H61.3182V56.7826H57.2273Z" fill="#3336B2"/>
<path d="M57.2273 74.3913V82.2174H61.3182V74.3913H57.2273Z" fill="#3336B2"/>
<path d="M68.4773 18.6304V10.8043H72.5682V18.6304H68.4773Z" fill="#3336B2"/>
<path d="M68.4773 23.5217V31.3478H72.5682V23.5217H68.4773Z" fill="#3336B2"/>
<path d="M68.4773 44.0652V36.2391H72.5682V44.0652H68.4773Z" fill="#3336B2"/>
<path d="M68.4773 48.9565V56.7826H72.5682V48.9565H68.4773Z" fill="#3336B2"/>
<path d="M68.4773 82.2174V74.3913H72.5682V82.2174H68.4773Z" fill="#3336B2"/>
<path d="M68.4773 61.6739V69.5H72.5682V61.6739H68.4773Z" fill="#3336B2"/>
<path d="M79.7273 10.8043H83.8182V18.6304H79.7273V10.8043Z" fill="#3336B2"/>
<path d="M79.7273 23.5217V31.3478H83.8182V23.5217H79.7273Z" fill="#3336B2"/>
<path d="M79.7273 44.0652V36.2391H83.8182V44.0652H79.7273Z" fill="#3336B2"/>
<path d="M79.7273 48.9565V56.7826H83.8182V48.9565H79.7273Z" fill="#3336B2"/>
<path d="M79.7273 82.2174V74.3913H83.8182V82.2174H79.7273Z" fill="#3336B2"/>
<path d="M79.7273 61.6739V69.5H83.8182V61.6739H79.7273Z" fill="#3336B2"/>
<path fill-rule="evenodd" clip-rule="evenodd" d="M29.6136 72.4348V74.3913H35.75V78.3044H29.6136V83.1957H25.5227V78.3044H23.4773V74.3913H25.5227V72.4348H23.4773V68.5217H25.5227V56.7826L35.75 56.7826C38.1974 56.7826 40.1257 57.8153 41.3916 59.3722C42.6147 60.8764 43.1648 62.7893 43.1648 64.6087C43.1648 66.4281 42.6147 68.341 41.3916 69.8452C40.1257 71.4021 38.1974 72.4348 35.75 72.4348H29.6136ZM29.6136 68.5217V60.6957L35.75 60.6957C36.8822 60.6957 37.6385 61.1303 38.1624 61.7746C38.729 62.4714 39.0739 63.4933 39.0739 64.6087C39.0739 65.7241 38.729 66.746 38.1624 67.4428C37.6385 68.0871 36.8822 68.5217 35.75 68.5217H29.6136Z" fill="#3336B2"/>
<path fill-rule="evenodd" clip-rule="evenodd" d="M49.0455 5.91304C49.0455 3.75193 50.877 2 53.1364 2H87.9091C90.1684 2 92 3.75192 92 5.91304V88.087C92 90.2481 90.1684 92 87.9091 92H4.04545C2.91578 92 2 91.124 2 90.0435C2 88.9629 2.91578 88.087 4.04545 88.087H12.2273V68.5217H9.57484C5.77682 68.5217 4.02884 64.0019 6.91252 61.6377L12.2273 57.2803V14.7174C12.2273 12.5563 14.0588 10.8043 16.3182 10.8043H49.0455V5.91304ZM87.9091 88.087H53.1364V68.5217H55.7888C59.5868 68.5217 61.3348 64.002 58.4511 61.6377L53.1364 57.2803V5.91304H87.9091V88.087ZM49.0455 30.3696V53.9262L35.3441 42.6928C33.8121 41.4368 31.5515 41.4368 30.0195 42.6928L16.3182 53.9262V14.7174H49.0455V19.6087H22.4545C21.3249 19.6087 20.4091 20.4847 20.4091 21.5652C20.4091 22.6458 21.3249 23.5217 22.4545 23.5217H49.0455V26.4565H22.4545C21.3249 26.4565 20.4091 27.3325 20.4091 28.413C20.4091 29.4936 21.3249 30.3696 22.4545 30.3696H49.0455ZM49.0454 88.087H16.3182V64.6087H9.57484L32.6818 45.6638L55.7888 64.6087H49.0454V88.087Z" fill="#3336B2"/>
</svg>
