<svg width="94" height="94" viewBox="0 0 94 94" fill="none" xmlns="http://www.w3.org/2000/svg">
<path fill-rule="evenodd" clip-rule="evenodd" d="M44 68.5219V70.4784H51V74.3914H44V79.2827H40V74.3914H38V70.4784H40V68.5219H38V64.6089H40V51.8916L51 51.8916C53.5573 51.8916 55.5741 52.9743 56.9057 54.6216C58.1961 56.218 58.7826 58.2576 58.7826 60.2068C58.7826 62.1559 58.1961 64.1956 56.9057 65.7919C55.5741 67.4392 53.5573 68.5219 51 68.5219H44ZM44 64.6089V55.8046L51 55.8046C52.2978 55.8046 53.1723 56.3116 53.7682 57.0488C54.4053 57.8369 54.7826 58.9766 54.7826 60.2068C54.7826 61.437 54.4053 62.5766 53.7682 63.3648C53.1723 64.1019 52.2978 64.6089 51 64.6089H44Z" fill="#3336B2"/>
<path fill-rule="evenodd" clip-rule="evenodd" d="M72.7111 16.2641C75.8909 23.5028 76.0065 32.2733 76.002 39.1743H80C82.2091 39.1743 84 40.9262 84 43.0873V88.087C84 90.2481 82.2091 92 80 92H14C11.7909 92 10 90.2481 10 88.087V43.0873C10 40.9262 11.7909 39.1743 14 39.1743H17.998C17.996 32.7902 18.1371 24.1682 21.2841 16.8815C23.0512 12.7897 25.7894 9.04744 30.013 6.33386C34.2319 3.62333 39.7771 2.03923 46.9891 2.00074C54.184 1.96234 59.7255 3.41532 63.9497 6.00003C68.1855 8.59184 70.9362 12.2236 72.7111 16.2641ZM47.0109 5.9137C53.6475 5.87828 58.3968 7.21774 61.8285 9.31754C65.2486 11.4102 67.5189 14.3551 69.0361 17.809C71.8631 24.2446 71.9985 32.2044 72.0008 39.1743H67.0036C67.0116 36.2184 67.0177 33.2439 66.8403 30.4436C66.6236 27.0204 66.1265 23.6908 64.9436 20.7728C63.7438 17.8134 61.8294 15.2592 58.8182 13.476C55.8383 11.7113 51.9591 10.805 47 10.805C42.01 10.805 38.1151 11.806 35.1318 13.6924C32.1311 15.5899 30.2361 18.2673 29.0488 21.2875C26.9735 26.5669 26.9743 33.213 26.9951 39.1743H21.9993C22.0035 32.7561 22.1588 24.9106 24.9687 18.4044C26.4937 14.8734 28.7766 11.8097 32.2088 9.60457C35.6458 7.39639 40.3914 5.94902 47.0109 5.9137ZM62.848 30.6855C63.0177 33.3649 63.0112 36.2054 63.0034 39.1743H30.9968C30.9836 33.0771 31.0008 27.2241 32.7823 22.692C33.7336 20.272 35.1578 18.3353 37.3032 16.9787C39.4661 15.611 42.5441 14.718 47 14.718C51.4868 14.718 54.5805 15.5405 56.7467 16.8234C58.8816 18.0877 60.2865 19.8998 61.2253 22.2154C62.1808 24.5724 62.6416 27.4265 62.848 30.6855ZM14 43.0873H80V88.087H14V43.0873Z" fill="#3336B2"/>
</svg>
