<svg width="94" height="94" viewBox="0 0 94 94" fill="none" xmlns="http://www.w3.org/2000/svg">
<path d="M55.9908 45.4149C56.8254 44.6406 56.8254 43.3852 55.9908 42.6108C55.1562 41.8365 53.8031 41.8365 52.9685 42.6108L45.9315 49.14L43.1685 46.5764C42.3339 45.8021 40.9808 45.8021 40.1463 46.5764C39.3117 47.3507 39.3117 48.6062 40.1463 49.3805L44.3448 53.276C45.2211 54.089 46.6419 54.089 47.5182 53.276L55.9908 45.4149Z" fill="#3336B2"/>
<path fill-rule="evenodd" clip-rule="evenodd" d="M26.6981 46.9871C26.6981 36.584 35.7875 28.1506 47 28.1506C58.2125 28.1506 67.3019 36.584 67.3019 46.9871C67.3019 57.3902 58.2125 65.8235 47 65.8235C35.7875 65.8235 26.6981 57.3902 26.6981 46.9871ZM47 32.1162C38.1481 32.1162 30.9721 38.7741 30.9721 46.9871C30.9721 55.2 38.1481 61.858 47 61.858C55.8519 61.858 63.0279 55.2 63.0279 46.9871C63.0279 38.7741 55.8519 32.1162 47 32.1162Z" fill="#3336B2"/>
<path fill-rule="evenodd" clip-rule="evenodd" d="M46.4877 2.30554C46.8033 2.11731 47.1967 2.11732 47.5123 2.30554L48.5107 2.90105C55.8538 7.28127 60.9189 10.3026 66.7071 12.2873C72.5293 14.2837 79.1991 15.2625 89.7409 15.2625H90.9383C91.5141 15.2625 91.971 15.7475 91.9365 16.3223L91.8747 17.3553C90.8001 35.3016 88.1048 48.78 81.4756 60.3126C74.8338 71.867 64.3662 81.2582 48.1854 91.2668L47.526 91.6746C47.2037 91.874 46.7963 91.874 46.474 91.6746L45.8146 91.2668C29.6338 81.2582 19.1662 71.867 12.5244 60.3126C5.89519 48.78 3.1999 35.3016 2.12531 17.3553L2.06346 16.3223C2.02904 15.7475 2.48588 15.2625 3.06167 15.2625H4.25907C13.1603 15.2625 19.86 14.2926 26.1312 12.2739C32.4311 10.246 38.4038 7.12722 45.8444 2.68928L46.4877 2.30554ZM6.52572 19.207C7.6691 35.8828 10.3463 48.0965 16.2957 58.4464C22.3208 68.9281 31.8185 77.6969 47 87.2285C62.1815 77.6969 71.6792 68.9281 77.7043 58.4464C83.6531 48.0977 86.3303 35.8855 87.4739 19.2126C77.8842 19.0784 71.2292 18.0656 65.2255 16.007C59.1544 13.9253 53.8521 10.8016 46.9968 6.71253C39.9814 10.851 33.9699 13.9481 27.5321 16.0204C21.2802 18.0329 14.7149 19.0516 6.52572 19.207Z" fill="#3336B2"/>
</svg>
