<svg width="94" height="94" viewBox="0 0 94 94" fill="none" xmlns="http://www.w3.org/2000/svg">
<path d="M20.0716 26.6777C19.7349 27.7298 18.6291 28.3032 17.6017 27.9584C16.5743 27.6136 16.0144 26.4812 16.3511 25.429C16.6878 24.3769 17.7936 23.8035 18.821 24.1483C19.8483 24.4931 20.4083 25.6256 20.0716 26.6777Z" fill="#3336B2"/>
<path d="M73.9284 26.6777C74.2651 27.7298 75.3709 28.3032 76.3983 27.9584C77.4257 27.6136 77.9856 26.4812 77.6489 25.429C77.3122 24.3769 76.2064 23.8035 75.179 24.1483C74.1517 24.4931 73.5918 25.6256 73.9284 26.6777Z" fill="#3336B2"/>
<path fill-rule="evenodd" clip-rule="evenodd" d="M13.8417 17.2005C11.7869 16.5109 9.57527 17.6577 8.90188 19.7619L2.19576 40.7176C1.52236 42.8219 2.64219 45.0868 4.69695 45.7764L15.0339 49.2457L17.0204 53.8054C16.9262 53.9015 16.8337 54.0001 16.743 54.1012C15.5229 55.4612 14.7638 57.1244 14.594 58.7784C14.4243 60.4322 14.8469 62.2195 16.1881 63.4814C17.4036 64.625 18.9752 64.9622 20.4462 64.7824C20.5094 66.1222 20.9909 67.4631 22.0569 68.472C23.3943 69.738 25.1683 70.0236 26.7639 69.7154C26.99 69.6717 27.2154 69.616 27.4391 69.5486C27.6363 70.749 28.187 71.9038 29.2006 72.7595C30.6058 73.9459 32.3927 74.1282 33.9688 73.7281C34.4071 73.6168 34.8398 73.4592 35.2609 73.259C35.5475 74.2818 36.1112 75.2357 37.0186 75.9503C38.4623 77.0873 40.2542 77.2075 41.8161 76.7528C43.3782 76.2982 44.8482 75.2473 45.9475 73.7833C46.4644 73.095 46.874 72.349 47.1659 71.579L51.8847 74.3404C55.3262 76.4417 58.8811 74.9994 60.549 72.4824C61.1514 71.5732 61.5437 70.4761 61.5821 69.3149C61.941 69.285 62.2946 69.22 62.6402 69.1204C64.1612 68.6824 65.3546 67.6251 66.0733 66.3371C66.5778 65.4329 66.8678 64.3814 66.8675 63.2928C69.3709 63.4896 71.5535 62.3421 72.6802 60.3228C73.1872 59.4142 73.4422 58.3696 73.3895 57.2997C75.6175 57.2679 77.5248 56.1511 78.553 54.3085C79.317 52.9393 79.5088 51.2612 78.9377 49.6529C78.8708 49.4643 78.7943 49.2792 78.7085 49.0979C79.1362 49.1061 79.5724 49.0422 80.0018 48.8981L89.303 45.7764C91.3578 45.0868 92.4776 42.8219 91.8042 40.7176L85.0981 19.7619C84.4247 17.6577 82.2131 16.5109 80.1583 17.2005L70.8571 20.3222C68.8024 21.0118 67.6825 23.2767 68.3559 25.3809L68.7141 26.5002H63.204C63.204 26.5002 63.1929 26.4984 63.1776 26.4893C60.7193 25.0259 58.3386 23.9783 55.7356 23.6037C53.2034 23.2394 50.6032 23.5318 47.667 24.4955H45.3017C42.7251 23.7921 40.3032 23.3837 37.923 23.5985C35.4163 23.8247 33.0847 24.7293 30.7331 26.4654C30.7087 26.4834 30.6883 26.4928 30.6756 26.4972C30.6701 26.4991 30.665 26.5002 30.665 26.5002H25.2859L25.6441 25.3809C26.3175 23.2767 25.1976 21.0118 23.1429 20.3222L13.8417 17.2005ZM47.474 67.1413L53.8621 70.8796L53.88 70.8906C55.3265 71.7794 56.6555 71.2177 57.3092 70.231C57.6369 69.7365 57.7256 69.2266 57.6365 68.8111C57.5796 68.5458 57.4224 68.1879 57.0049 67.8164L56.2403 67.2944L52.0936 64.8172C51.1628 64.2611 50.8475 63.0628 51.3842 62.1206C51.9368 61.1504 53.1787 60.8236 54.1373 61.3962L58.2411 63.8478C58.6372 64.0709 59.001 64.3177 59.3309 64.5856L59.7891 64.8984C60.5848 65.3764 61.1825 65.3752 61.5802 65.2607C62.0168 65.1349 62.4139 64.8139 62.674 64.3478C62.934 63.8818 63.0177 63.3389 62.8994 62.8389C62.7893 62.374 62.4715 61.8054 61.6697 61.3078L56.523 58.2959C55.5868 57.7481 55.2607 56.5521 55.7893 55.6049C56.3333 54.6298 57.5723 54.292 58.536 54.856L63.5848 57.8105L65.4938 58.788C67.6625 59.8985 68.9026 59.0114 69.2809 58.3335C69.4957 57.9485 69.5485 57.4966 69.3855 57.0374C69.2229 56.5796 68.7737 55.9289 67.6581 55.3576L60.5912 51.739C59.6236 51.2436 59.2308 50.0647 59.7077 49.0879C60.1976 48.0844 61.4158 47.6785 62.4098 48.1874L71.3666 52.7737C73.5353 53.8842 74.7754 52.9971 75.1536 52.3192C75.3685 51.9343 75.4213 51.4823 75.2583 51.0232C75.0957 50.5653 74.6465 49.9146 73.5309 49.3433L57.8701 41.3243C56.6941 40.7221 55.8579 40.5742 54.8285 40.706C53.6489 40.857 52.1634 41.3795 49.6846 42.3949L49.6101 42.4254L49.5333 42.4496C43.2181 44.4396 39.1584 45.6953 33.5486 43.3973L33.473 43.3663L33.4002 43.329C32.9132 43.0797 32.3811 42.795 31.9435 42.4678C31.5257 42.1553 30.8983 41.5911 30.6673 40.6742C30.419 39.6891 30.7548 38.8411 31.0999 38.2736C31.4364 37.7202 31.9237 37.1931 32.4474 36.6903C33.5054 35.6745 35.1806 34.3249 37.4735 32.4865L37.9349 32.1167C39.3577 30.9763 41.0327 29.6337 42.9866 28.04C41.1918 27.6281 39.668 27.466 38.2668 27.5925C36.5292 27.7494 34.86 28.3615 33.0226 29.7179C32.3685 30.2008 31.552 30.5097 30.6676 30.5097H24.0028L18.5635 47.5068L20.389 51.6967C20.6284 51.6219 20.8697 51.5604 21.1121 51.5129C22.7068 51.1998 24.4816 51.48 25.8227 52.7418C26.8981 53.7536 27.3829 55.1031 27.4454 56.4508C28.9235 56.2691 30.5043 56.6087 31.7228 57.7621C32.5642 58.5585 33.0415 59.5617 33.2363 60.608C33.321 60.5829 33.4058 60.5595 33.4909 60.5379C35.067 60.1378 36.8539 60.3201 38.2591 61.5065C39.065 62.1868 39.5783 63.0563 39.8539 63.9874C40.1964 63.8245 40.5469 63.6903 40.9021 63.5868C42.464 63.1322 44.2559 63.2524 45.6996 64.3894C46.6249 65.1181 47.1928 66.0956 47.474 67.1413ZM25.2083 62.1877C25.2282 62.1659 25.2481 62.144 25.2678 62.1219C25.3957 61.9795 25.5184 61.8337 25.636 61.6849C26.3185 60.9788 27.0898 60.5846 27.7414 60.4588C28.4322 60.3253 28.8492 60.5019 29.0654 60.7065C29.2815 60.9111 29.4862 61.323 29.4106 62.0388C29.3351 62.7543 28.9766 63.6309 28.2653 64.419C27.554 65.2071 26.7289 65.642 26.0383 65.7753C25.3475 65.9088 24.9305 65.7322 24.7143 65.5276C24.4981 65.323 24.2935 64.9111 24.3691 64.1953C24.4329 63.5909 24.6986 62.8716 25.2083 62.1877ZM22.6806 59.0481C23.1943 58.359 23.4606 57.6338 23.523 57.0256C23.5965 56.3096 23.3907 55.8983 23.1739 55.6944C22.9571 55.4905 22.5396 55.3152 21.8492 55.4507C21.159 55.5862 20.3351 56.0236 19.6261 56.8139C18.9171 57.6042 18.5612 58.4818 18.4878 59.1976C18.4143 59.9136 18.6202 60.3248 18.8369 60.5288C19.0537 60.7327 19.4712 60.908 20.1617 60.7725C20.8094 60.6453 21.5749 60.2522 22.2527 59.551C22.3759 59.3952 22.5047 59.2426 22.6392 59.0936L22.6806 59.0481ZM69.9972 30.5097H63.203C62.4884 30.5097 61.803 30.3087 61.21 29.9557C58.9887 28.6334 57.1044 27.8496 55.1909 27.5742C53.3755 27.313 51.3967 27.4903 48.9304 28.2913C45.3876 31.2348 42.5551 33.505 40.3497 35.2727L39.887 35.6436C37.5306 37.5328 36.0247 38.7518 35.1251 39.6154C35.0986 39.6409 35.073 39.6657 35.0483 39.6898L35.0777 39.7051C39.1979 41.3703 41.9887 40.6309 48.3054 38.6415C50.686 37.6677 52.6042 36.95 54.3429 36.7274C56.2499 36.4833 57.8606 36.8366 59.621 37.738L74.7972 45.5089L69.9972 30.5097ZM21.9236 24.1323L15.2175 45.088L5.91625 41.9663L12.6224 21.0106L21.9236 24.1323ZM72.0764 24.1323L81.3776 21.0106L88.0838 41.9663L78.7825 45.088L72.0764 24.1323ZM34.2154 39.2006C34.2061 39.1911 34.2001 39.1865 34.2001 39.1865L34.2013 39.188L34.2052 39.1917L34.2105 39.1964L34.2154 39.2006ZM34.4331 64.4296C33.751 64.6028 32.9512 65.0848 32.2846 65.9129C31.618 66.741 31.3086 67.6369 31.2727 68.3556C31.2368 69.0746 31.4639 69.474 31.691 69.6658C31.9181 69.8575 32.3443 70.0096 33.0266 69.8364C33.7087 69.6632 34.5085 69.1812 35.1751 68.3531C35.8417 67.5251 36.1511 66.6291 36.187 65.9104C36.2229 65.1914 35.9958 64.792 35.7687 64.6003C35.5416 64.4085 35.1154 64.2564 34.4331 64.4296ZM39.8743 69.0006C40.5131 68.1498 41.2965 67.6404 41.9725 67.4436C42.6487 67.2468 43.0796 67.3841 43.313 67.5678C43.5463 67.7516 43.7865 68.1428 43.7744 68.8627C43.7623 69.5822 43.4827 70.4884 42.8439 71.3391C42.2051 72.1899 41.4217 72.6993 40.7457 72.8961C40.0695 73.0929 39.6386 72.9556 39.4052 72.7719C39.1719 72.5881 38.9317 72.1969 38.9438 71.477C38.9559 70.7575 39.2355 69.8513 39.8743 69.0006Z" fill="#3336B2"/>
</svg>
