<svg width="94" height="94" viewBox="0 0 94 94" fill="none" xmlns="http://www.w3.org/2000/svg">
<path d="M71.5414 27.4348C74.9302 27.4348 77.6774 24.8069 77.6774 21.5652C77.6774 18.3236 74.9302 15.6957 71.5414 15.6957C68.1526 15.6957 65.4054 18.3236 65.4054 21.5652C65.4054 24.8069 68.1526 27.4348 71.5414 27.4348Z" fill="#3336B2"/>
<path fill-rule="evenodd" clip-rule="evenodd" d="M66.4302 2.00002C54.1994 1.98784 43.9608 8.52655 40.9229 20.1109C40.3031 22.4743 40.3711 25.2779 40.6241 27.6808C40.8814 30.1234 41.3524 32.3424 41.6561 33.6185C41.662 33.6432 41.6603 33.6652 41.6558 33.6808C41.6537 33.6882 41.6513 33.6929 41.6498 33.6953L41.6484 33.6974L41.6474 33.6986L3.49766 70.1918C2.53872 71.1091 2 72.3532 2 73.6504V87.1087C2 89.8101 4.28932 92 7.11334 92H20.408C22.6672 92 24.4987 90.2481 24.4987 88.087V80.2609H32.68C34.9393 80.2609 36.7707 78.5089 36.7707 76.3478V68.5217L42.9067 68.5217C45.1659 68.5217 46.9974 66.7698 46.9974 64.6087V56.7826H56.3769C57.4618 56.7826 58.5023 56.3703 59.2694 55.6365L63.0735 51.9976C63.0735 51.9976 63.0944 51.9788 63.1447 51.9832C64.4477 52.0976 66.8415 52.2552 69.4619 52.1642C72.0362 52.0747 75.0427 51.7404 77.4566 50.7564C87.7892 46.5446 92.1781 37.7556 91.9945 27.4016C91.7483 13.5226 81.2536 2.01478 66.4302 2.00002ZM44.8906 21.063C47.4113 11.4513 55.8119 5.90249 66.4259 5.91306C78.7131 5.92529 87.6906 15.4174 87.9044 27.468C88.067 36.6361 84.2977 43.7143 75.8529 47.1566C74.1415 47.8542 71.7417 48.1693 69.3134 48.2537C66.9311 48.3365 64.726 48.1925 63.5187 48.0865C62.3074 47.9802 61.0757 48.3747 60.1809 49.2307L56.3769 52.8696H46.9974C44.7382 52.8696 42.9067 54.6215 42.9067 56.7826V64.6087H36.7707C34.5115 64.6087 32.68 66.3606 32.68 68.5217V76.3478H24.4987C22.2395 76.3478 20.408 78.0998 20.408 80.2609V88.087H7.11334C6.54853 88.087 6.09067 87.649 6.09067 87.1087V73.6504C6.09067 73.391 6.19842 73.1422 6.3902 72.9587L44.5399 36.4655C45.5769 35.4736 45.9559 34.0571 45.6447 32.7498C45.3619 31.5616 44.9285 29.513 44.6942 27.2885C44.4557 25.0244 44.4451 22.7616 44.8906 21.063Z" fill="#3336B2"/>
</svg>
