<svg width="94" height="94" viewBox="0 0 94 94" fill="none" xmlns="http://www.w3.org/2000/svg">
<path d="M63.1714 31.0444C63.9986 30.2457 65.3394 30.2456 66.1665 31.0444C66.9937 31.8434 66.9937 33.139 66.1665 33.938L57.7691 42.0493C56.9005 42.8883 55.4922 42.8883 54.6236 42.0493L50.4615 38.0298C49.6345 37.2308 49.6344 35.9351 50.4615 35.1362C51.2886 34.3372 52.6304 34.3373 53.4576 35.1362L56.1958 37.7817L63.1714 31.0444Z" fill="#3336B2"/>
<path fill-rule="evenodd" clip-rule="evenodd" d="M55.7027 13.4536C57.2365 12.2941 59.3915 12.294 60.9253 13.4536L79.1421 27.228C82.3131 29.6256 80.5579 34.5415 76.5308 34.5415H75.2593V48.8637C75.2593 51.1236 73.3627 52.9555 71.023 52.9555H45.605C43.2653 52.9555 41.3687 51.1236 41.3687 48.8637V34.5405H40.0923C36.0661 34.5385 34.3132 29.6228 37.4839 27.226L55.7027 13.4536ZM40.0943 30.4487L45.605 30.4507V48.8637H71.023V30.4497H76.5308L58.314 16.6762L40.0943 30.4487Z" fill="#3336B2"/>
<path fill-rule="evenodd" clip-rule="evenodd" d="M33.4497 12.6977C46.0553 -0.63395 67.1032 -1.67118 80.9244 10.521C94.7315 22.7007 95.7968 44.0543 83.1783 57.3999C71.0313 70.2465 51.0449 71.6771 37.2398 60.855L28.3472 69.4448C29.1984 70.9916 28.9492 72.9552 27.6001 74.2583L10.4732 90.8012C8.81876 92.3992 6.13638 92.3992 4.48197 90.8012L3.24076 89.603C1.58644 88.005 1.58638 85.4139 3.24076 83.8159L20.3687 67.2729C21.7178 65.9701 23.7499 65.7294 25.3511 66.5512L34.1187 58.0835C21.8335 45.7137 21.3324 25.5132 33.4497 12.6977ZM78.0679 13.5425C65.993 2.89074 47.6226 3.77626 36.5777 15.4575C25.546 27.1249 26.4715 45.8909 38.5601 56.5551C50.635 67.2068 69.0054 66.3213 80.0503 54.6401C91.0821 42.9726 90.1567 24.2067 78.0679 13.5425Z" fill="#3336B2"/>
</svg>
