<svg width="94" height="94" viewBox="0 0 94 94" fill="none" xmlns="http://www.w3.org/2000/svg">
<path d="M13.291 63.6771C14.4248 63.6771 15.3447 64.6914 15.3447 65.9428C15.3447 67.1942 14.4248 68.2084 13.291 68.2084C12.1573 68.2082 11.2383 67.1941 11.2383 65.9428C11.2383 64.6915 12.1574 63.6773 13.291 63.6771Z" fill="#3336B2"/>
<path fill-rule="evenodd" clip-rule="evenodd" d="M16.3711 58.0121C18.6384 58.0123 20.4764 60.0408 20.4766 62.5433V63.6771H33.5332C33.9146 63.6771 34.2944 63.7353 34.6611 63.851L48.0986 68.0883L64.0918 61.3646C67.8721 59.7751 72.1384 61.4607 74.1455 65.3373L74.7617 66.5287L80.9258 63.9115C85.0463 62.1626 89.6818 64.3225 91.4209 68.8012L91.75 69.6478C92.4315 71.403 91.6696 73.4327 90.0635 74.142L50.5137 91.6029C49.8162 91.9108 49.0554 92.0019 48.3145 91.8656L20.4766 86.7445V87.4691C20.4763 89.9716 18.6384 92.0002 16.3711 92.0004H6.10547C3.83819 92.0001 2.00024 89.9715 2 87.4691V62.5433C2.0002 60.0409 3.83816 58.0124 6.10547 58.0121H16.3711ZM6.10547 62.5433V87.4691H16.3711V62.5433H6.10547ZM70.5801 67.5853C69.5765 65.6473 67.4437 64.8044 65.5537 65.599L49.5605 72.3236C48.732 72.672 47.8231 72.7146 46.9707 72.4457L33.5332 68.2084H20.4766V82.1508L48.9893 87.3949L87.5566 70.3685C86.6252 68.278 84.3916 67.2954 82.3994 68.141L74.583 71.4594L49.9395 81.6596L48.4971 77.4164L70.875 68.1547L70.5801 67.5853Z" fill="#3336B2"/>
<path fill-rule="evenodd" clip-rule="evenodd" d="M44.6006 2.99354C46.1001 1.66948 48.2309 1.66946 49.7305 2.99354L69.54 20.4847C72.5704 23.1608 70.8558 28.5551 66.9746 28.5551H64.6152V46.682C64.6152 49.1847 62.7773 51.2141 60.5098 51.2142H33.8213C31.5536 51.2142 29.7148 49.1848 29.7148 46.682V28.5551H27.3555C23.4744 28.5548 21.7603 23.1607 24.791 20.4847L44.6006 2.99354ZM27.3555 24.0238H33.8213V46.682H38.9531V33.0873C38.9531 30.5844 40.792 28.5551 43.0596 28.5551H51.2715C53.539 28.5552 55.377 30.5845 55.377 33.0873V46.682H60.5098V24.0238H66.9746L47.165 6.53162L27.3555 24.0238ZM43.0596 46.682H51.2715V33.0873H43.0596V46.682Z" fill="#3336B2"/>
</svg>
