<svg width="94" height="94" viewBox="0 0 94 94" fill="none" xmlns="http://www.w3.org/2000/svg">
<path d="M81.7725 46.0215C82.9022 46.0215 83.8184 46.8979 83.8184 47.9785C83.8181 49.0588 82.902 49.9346 81.7725 49.9346H56.2041C55.0749 49.9343 54.1594 49.0587 54.1592 47.9785C54.1592 46.8981 55.0747 46.0217 56.2041 46.0215H81.7725Z" fill="#3336B2"/>
<path d="M81.7725 37.2178C82.902 37.2178 83.8181 38.0935 83.8184 39.1738C83.8184 40.2544 82.9022 41.1309 81.7725 41.1309H56.2041C55.0747 41.1306 54.1592 40.2543 54.1592 39.1738C54.1594 38.0937 55.0749 37.218 56.2041 37.2178H81.7725Z" fill="#3336B2"/>
<path fill-rule="evenodd" clip-rule="evenodd" d="M41.8867 10.8047C44.1458 10.8049 45.9775 12.5568 45.9775 14.7178V30.3701C45.9775 32.531 44.1458 34.283 41.8867 34.2832H25.5225C23.2632 34.2832 21.4317 32.5311 21.4316 30.3701V14.7178C21.4316 12.5567 23.2632 10.8047 25.5225 10.8047H41.8867ZM25.5225 30.3701H41.8867V14.7178H25.5225V30.3701Z" fill="#3336B2"/>
<path d="M81.7725 28.4131C82.9022 28.4131 83.8184 29.2895 83.8184 30.3701C83.8181 31.4504 82.902 32.3262 81.7725 32.3262H56.2041C55.0749 32.3259 54.1594 31.4503 54.1592 30.3701C54.1592 29.2897 55.0747 28.4133 56.2041 28.4131H81.7725Z" fill="#3336B2"/>
<path d="M81.7725 19.6084C82.902 19.6084 83.8181 20.4842 83.8184 21.5645C83.8184 22.6451 82.9022 23.5215 81.7725 23.5215H56.2041C55.0747 23.5212 54.1592 22.6449 54.1592 21.5645C54.1594 20.4843 55.0749 19.6086 56.2041 19.6084H81.7725Z" fill="#3336B2"/>
<path d="M81.7725 10.8047C82.9022 10.8047 83.8184 11.6811 83.8184 12.7617C83.8181 13.842 82.902 14.7178 81.7725 14.7178H56.2041C55.0749 14.7175 54.1594 13.8419 54.1592 12.7617C54.1592 11.6813 55.0747 10.8049 56.2041 10.8047H81.7725Z" fill="#3336B2"/>
<path fill-rule="evenodd" clip-rule="evenodd" d="M87.9092 2C90.1684 2.00004 92 3.752 92 5.91309V80.0596C92 81.7738 89.9346 82.7339 88.5254 81.6748L74.9287 71.4561H52.1133V81.3691C52.1132 82.4356 51.3274 83.1031 50.6416 83.3242C49.9504 83.5469 48.8692 83.4689 48.1992 82.5732C47.4383 81.5558 42.2664 75.3692 27.5684 75.3691H24.8926L27.1133 87.4072C27.5551 89.8031 25.6284 91.9998 23.085 92H20.0801C18.0951 92 16.3958 90.6365 16.0508 88.7666L13.5791 75.3691H12.2275C9.96817 75.3691 8.13672 73.6172 8.13672 71.4561V69.5H6.09082C3.83151 69.5 2 67.748 2 65.5869V59.7178C2 57.5567 3.83151 55.8047 6.09082 55.8047H8.13672V53.8477C8.1368 51.6876 9.96621 49.9346 12.2266 49.9346H13.25V5.91309C13.25 3.752 15.0816 2.00004 17.3408 2H87.9092ZM20.0801 88.0869H23.085L20.7383 75.3691H17.7334L20.0801 88.0869ZM48.0225 48.335C44.7008 50.7423 38.9311 53.459 29.6133 53.8096V71.4941C38.9308 71.8447 44.7007 74.5614 48.0225 76.9688V48.335ZM17.3408 49.9346H27.5684C42.266 49.9345 47.4381 43.7492 48.1992 42.7314C48.8692 41.8357 49.9504 41.7577 50.6416 41.9805C51.3274 42.2015 52.1133 42.8691 52.1133 43.9355V67.5439H74.9287C75.8453 67.5439 76.7353 67.8382 77.4561 68.3799L87.9092 76.2354V5.91309H17.3408V49.9346ZM12.2275 71.4561H25.5225V53.8477H12.2275V71.4561ZM6.09082 65.5869H8.13672V59.7178H6.09082V65.5869Z" fill="#3336B2"/>
</svg>
